<?xml version="1.0" encoding="UTF-8"?>
<svg id="Capa_1" data-name="Capa 1" xmlns="http://www.w3.org/2000/svg" viewBox="0 0 442.68 504.45">
  <defs>
    <style>
      .cls-1 {
        fill: #010101;
        stroke: #010101;
        stroke-miterlimit: 10;
      }

      .cls-2 {
        fill: #e16449;
        stroke-width: 0px;
      }
    </style>
  </defs>
  <path class="cls-1" d="M398.98,200.08v-71.75l-24.01-24.01v71.75L199.6.71.5,199.81v240.58h153.88c.22-5.95.3-14.3-.26-24.01-.37-6.72-1.03-14.09-2.12-21.74-.02-.02-.05-.02-.07-.04-.02-.17-.05-.34-.07-.5h0c-2.52-17.16-7.24-35.76-15.82-52.15,0,0,0,0,0,0-.05-.07-.1-.14-.15-.21-.29-.39-.58-.79-.86-1.2-.28-.4-.56-.8-.83-1.21-.12-.17-.24-.35-.36-.53-.25-.36-.49-.74-.73-1.1-.02-.04-.04-.07-.06-.1-.29-.45-.57-.9-.85-1.36-.21-.35-.43-.71-.64-1.06-.17-.28-.34-.56-.49-.85-.27-.47-.53-.93-.79-1.4-.22-.39-.43-.79-.64-1.19-.32-.62-.64-1.24-.95-1.86,0,0,0,0,0,0-.13-.26-.26-.53-.39-.79-.14-.29-.28-.59-.42-.88-.06-.13-.12-.26-.19-.39-.13-.3-.27-.6-.41-.9-.17-.39-.34-.79-.51-1.18-.1-.23-.19-.45-.28-.68-.39-.92-.75-1.84-1.1-2.78-.1-.27-.2-.54-.29-.81-.13-.36-.26-.71-.38-1.08,0,0,0-.01-.01-.02-.12-.36-.25-.72-.36-1.08-.36-1.09-.71-2.2-1.02-3.32-.1-.37-.21-.75-.3-1.12-.81-2.99-1.43-6.06-1.89-9.18-.05-.34-.1-.68-.15-1.02-.16-1.2-.29-2.41-.4-3.62-.03-.34-.06-.69-.09-1.03-.02-.32-.05-.63-.07-.94,0-.05,0-.09,0-.13-.02-.3-.04-.59-.05-.89-.01-.25-.02-.49-.03-.75-.02-.38-.03-.76-.04-1.14-.02-.4-.02-.81-.02-1.21s-.01-.81-.01-1.22c0-45.07,36.54-81.62,81.62-81.62s81.62,36.54,81.62,81.62c0,12.48-2.8,24.31-7.81,34.88-2.09,4.4-4.55,8.59-7.36,12.52-8.65,16.99-13.38,35.69-15.87,52.76-.02.15-.04.3-.06.46-1.13,7.81-1.78,15.28-2.14,22.07-.52,9.75-.4,18.08-.14,24.01h148.87v-206.7l43.21,43.21v-33.61l-43.21-43.21h0ZM374.97,416.38h-100.44c1.51-16.14,5.55-35.71,15.28-53.52,2.5-4.57,5.37-9.03,8.67-13.27,7.36-13.25,12.05-28.16,13.4-44.04,0-.08.02-.17.02-.25.04-.45.07-.89.11-1.34.19-2.6.28-5.23.28-7.88,0-60.98-49.44-110.42-110.42-110.42s-110.42,49.44-110.42,110.42c0,5.74.44,11.38,1.28,16.89l.49-.22c.04.2.07.39.11.59.14.78.29,1.55.45,2.32l-.12.05c2.53,12.88,7.17,24.97,13.52,35.87,1.87,2.62,3.58,5.31,5.16,8.05,10.78,18.71,15.15,39.63,16.73,56.75H24.51v-206.97L199.6,34.31l175.37,175.37v206.7Z"/>
  <rect class="cls-2" x="144.63" y="456.44" width="115.22" height="19.2"/>
  <rect class="cls-2" x="154.24" y="485.24" width="96.02" height="19.2"/>
</svg>