<?xml version="1.0" encoding="UTF-8"?>
<svg id="Capa_1" data-name="Capa 1" xmlns="http://www.w3.org/2000/svg" viewBox="0 0 513 513">
  <defs>
    <style>
      .cls-1 {
        fill: #fff;
        stroke: #000;
      }

      .cls-1, .cls-2 {
        stroke-miterlimit: 10;
      }

      .cls-2 {
        fill: #1d1d1b;
        stroke: #1d1d1b;
      }

      .cls-3 {
        fill: #e06349;
        stroke-width: 0px;
      }
    </style>
  </defs>
  <rect class="cls-2" x=".5" y=".5" width="512" height="512" rx="125.4" ry="125.4"/>
  <path class="cls-1" d="M433.2,209.2v-66.1l-22.1-22.1v66.1L249.6,25.6,66.2,208.9v221.6h141.7c.2-5.5.3-13.2-.2-22.1-.3-6.2-.9-13-2-20,0,0,0,0,0,0,0-.2,0-.3,0-.5h0c-2.3-15.8-6.7-32.9-14.6-48,0,0,0,0,0,0,0,0,0-.1-.1-.2-.3-.4-.5-.7-.8-1.1-.3-.4-.5-.7-.8-1.1-.1-.2-.2-.3-.3-.5-.2-.3-.4-.7-.7-1,0,0,0,0,0,0-.3-.4-.5-.8-.8-1.3-.2-.3-.4-.7-.6-1-.2-.3-.3-.5-.5-.8-.2-.4-.5-.9-.7-1.3-.2-.4-.4-.7-.6-1.1-.3-.6-.6-1.1-.9-1.7,0,0,0,0,0,0-.1-.2-.2-.5-.4-.7-.1-.3-.3-.5-.4-.8,0-.1-.1-.2-.2-.4-.1-.3-.2-.6-.4-.8-.2-.4-.3-.7-.5-1.1,0-.2-.2-.4-.3-.6-.4-.8-.7-1.7-1-2.6,0-.2-.2-.5-.3-.7-.1-.3-.2-.7-.3-1,0,0,0,0,0,0-.1-.3-.2-.7-.3-1-.3-1-.7-2-.9-3.1,0-.3-.2-.7-.3-1-.7-2.8-1.3-5.6-1.7-8.5,0-.3,0-.6-.1-.9-.1-1.1-.3-2.2-.4-3.3,0-.3,0-.6,0-1,0-.3,0-.6,0-.9,0,0,0,0,0-.1,0-.3,0-.5,0-.8,0-.2,0-.5,0-.7,0-.3,0-.7,0-1,0-.4,0-.7,0-1.1s0-.7,0-1.1c0-41.5,33.7-75.2,75.2-75.2s75.2,33.7,75.2,75.2-2.6,22.4-7.2,32.1c-1.9,4.1-4.2,7.9-6.8,11.5-8,15.6-12.3,32.9-14.6,48.6,0,.1,0,.3,0,.4-1,7.2-1.6,14.1-2,20.3-.5,9-.4,16.6-.1,22.1h137.1v-190.4l39.8,39.8v-31l-39.8-39.8h0ZM411.1,408.4h-92.5c1.4-14.9,5.1-32.9,14.1-49.3,2.3-4.2,4.9-8.3,8-12.2,6.8-12.2,11.1-25.9,12.3-40.6,0,0,0-.2,0-.2,0-.4,0-.8,0-1.2.2-2.4.3-4.8.3-7.3,0-56.2-45.5-101.7-101.7-101.7s-101.7,45.5-101.7,101.7.4,10.5,1.2,15.6l.5-.2c0,.2,0,.4,0,.5.1.7.3,1.4.4,2.1h-.1c2.3,11.9,6.6,23,12.4,33.1,1.7,2.4,3.3,4.9,4.7,7.4,9.9,17.2,14,36.5,15.4,52.3h-96.3v-190.6L249.6,56.5l161.5,161.5v190.4Z"/>
  <rect class="cls-3" x="198.9" y="445.3" width="106.1" height="17.7"/>
  <rect class="cls-3" x="207.8" y="471.8" width="88.4" height="17.7"/>
</svg>