<svg width="24" height="24" viewBox="0 0 24 24" fill="none" xmlns="http://www.w3.org/2000/svg">
<path d="M6.63232 19.7871H16.542C17.582 19.7871 18.1899 19.1938 18.1899 18.1685V11.1299L19.208 11.9868C19.3545 12.1113 19.5229 12.2212 19.728 12.2212C20.0723 12.2212 20.3506 12.0088 20.3506 11.6572C20.3506 11.4375 20.2773 11.291 20.1235 11.1592L18.1899 9.5332V6.50098C18.1899 6.17871 17.9849 5.97363 17.6626 5.97363H16.8789C16.564 5.97363 16.3516 6.17871 16.3516 6.50098V7.98779L12.499 4.75049C11.957 4.28906 11.2832 4.28906 10.7339 4.75049L3.10205 11.1592C2.94092 11.291 2.86768 11.4668 2.86768 11.6353C2.86768 11.9355 3.10205 12.2212 3.49756 12.2212C3.70264 12.2212 3.87109 12.1113 4.0249 11.9868L4.97705 11.1812V18.1685C4.97705 19.1938 5.58496 19.7871 6.63232 19.7871ZM13.7222 13.7007C13.7222 13.3638 13.5024 13.144 13.1655 13.144H10.0601C9.71582 13.144 9.49609 13.3638 9.49609 13.7007V18.6079H6.88135C6.4126 18.6079 6.15625 18.3442 6.15625 17.8682V10.1924L11.3564 5.83447C11.5176 5.68799 11.7153 5.68799 11.8765 5.83447L17.0107 10.1411V17.8682C17.0107 18.3442 16.7544 18.6079 16.293 18.6079H13.7222V13.7007Z" fill="black"/>
</svg>
